<svg xmlns="http://www.w3.org/2000/svg" width="462" height="422" viewBox="0 0 462 422" version="1.1"><path d="M 100.308 360.956 C 99.103 361.471, 97.341 363.076, 96.393 364.524 C 92.928 369.812, 97.385 374.940, 105.500 375.001 C 110.037 375.035, 112.584 376.246, 111.569 377.888 C 110.560 379.520, 104.447 379.243, 103 377.500 C 101.586 375.797, 95 375.439, 95 377.066 C 95 379.477, 97.364 382.254, 100.548 383.585 C 109.321 387.250, 120 383.025, 120 375.889 C 120 375.350, 118.923 373.832, 117.607 372.516 C 115.843 370.752, 113.611 369.942, 109.107 369.433 C 104.937 368.961, 103 368.307, 103 367.371 C 103 365.747, 110.523 365.419, 111.500 367 C 112.285 368.270, 119 368.320, 119 367.056 C 119 366.536, 117.943 364.883, 116.651 363.380 C 114.669 361.077, 113.378 360.600, 108.401 360.334 C 105.155 360.161, 101.514 360.440, 100.308 360.956 M 122 372 L 122 384 125.500 384 L 129 384 129 378.622 C 129 372.552, 130.898 369.819, 133.834 371.661 C 134.998 372.392, 135.590 374.409, 135.800 378.354 L 136.100 384 139.550 384 L 143 384 143 377.111 C 143 368.755, 141.277 365.961, 135.997 365.757 C 134.074 365.683, 131.713 365.981, 130.750 366.418 C 129.260 367.096, 129 366.679, 129 363.607 C 129 360.151, 128.853 360, 125.500 360 L 122 360 122 372 M 171 372 L 171 384 174.195 384 C 176.288 384, 178.343 383.087, 180.151 381.355 L 182.911 378.711 184.116 381.355 C 185.114 383.546, 185.980 384, 189.161 384 C 191.272 384, 192.998 383.663, 192.996 383.250 C 192.993 382.837, 191.673 380.512, 190.061 378.083 L 187.130 373.665 190.093 370.083 L 193.056 366.500 189.515 366.189 C 185.962 365.877, 184.845 366.721, 179.282 373.923 C 178.293 375.203, 178.058 374.043, 178.032 367.750 L 178 360 174.500 360 L 171 360 171 372 M 194 372 L 194 384 198 384 L 202 384 202 378.622 C 202 372.552, 203.898 369.819, 206.834 371.661 C 207.998 372.392, 208.590 374.409, 208.800 378.354 L 209.100 384 212.550 384 L 216 384 216 378.047 C 216 374.773, 215.484 370.961, 214.853 369.576 C 213.393 366.373, 208.291 364.559, 204.644 365.945 C 202.100 366.913, 202 366.819, 202 363.475 C 202 360.087, 201.899 360, 198 360 L 194 360 194 372 M 283 372 L 283 384 286.427 384 C 288.945 384, 290.409 383.296, 291.941 381.347 C 294.210 378.464, 294.189 378.461, 295.900 381.750 C 296.814 383.508, 297.937 384, 301.035 384 C 304.310 384, 305 384.342, 305 385.965 C 305 389.605, 311.284 391.195, 316.421 388.854 C 318.207 388.040, 320.393 384.687, 323.968 377.278 C 326.736 371.542, 329 366.658, 329 366.424 C 329 366.191, 327.230 366, 325.067 366 C 321.914 366, 320.999 366.429, 320.448 368.163 C 320.071 369.352, 319.091 371.931, 318.272 373.892 L 316.782 377.458 314.585 371.979 C 312.531 366.855, 312.150 366.480, 308.695 366.190 C 306.514 366.006, 305 366.324, 305 366.965 C 305 368.499, 312.056 382.373, 313.211 383.111 C 315.096 384.314, 311.114 384.848, 307.840 383.830 C 305.530 383.113, 303.652 381.418, 301.749 378.333 C 298.887 373.693, 299.022 371.886, 302.445 369.045 C 304.864 367.038, 304.295 366, 300.777 366 C 298.238 366, 296.762 366.902, 293.820 370.250 L 290.085 374.500 290.043 367.250 L 290 360 286.500 360 L 283 360 283 372 M 149.775 366.559 C 146.321 368.433, 145 370.910, 145 375.511 C 145 382.655, 153.140 387.392, 158.712 383.489 C 160.077 382.533, 161.098 382.350, 161.493 382.989 C 161.837 383.545, 163.570 384, 165.345 384 L 168.571 384 168.571 375 L 168.571 366 165.369 366 C 163.608 366, 162.008 366.477, 161.813 367.060 C 161.585 367.744, 160.403 367.569, 158.480 366.566 C 154.825 364.660, 153.276 364.659, 149.775 366.559 M 223.402 366.905 C 218.912 368.944, 218 370.417, 218 375.627 C 218 382.382, 225.894 386.547, 234.060 384.100 C 243.254 381.346, 243.469 370.183, 234.401 366.394 C 230.056 364.579, 228.350 364.658, 223.402 366.905 M 252.767 366.438 C 251.180 367.266, 249.792 367.473, 249.458 366.932 C 249.141 366.419, 247.281 366, 245.324 366 C 242.123 366, 241.827 366.225, 242.370 368.250 C 242.701 369.488, 242.979 373.538, 242.986 377.250 L 243 384 246.500 384 C 249.926 384, 250 383.914, 250 379.934 C 250 374.067, 251.412 372, 255.420 372 C 257.871 372, 259.201 372.657, 260.375 374.449 C 261.671 376.428, 263.135 377.029, 267.990 377.578 C 271.295 377.952, 274 378.699, 274 379.239 C 274 379.820, 272.473 379.955, 270.250 379.571 C 259.178 377.658, 258.789 377.661, 259.158 379.636 C 259.952 383.886, 271.445 386.542, 276.902 383.735 C 282.402 380.907, 282.306 374.724, 276.737 373.115 L 273.500 372.180 277.372 372.090 C 281.154 372.002, 281.209 371.948, 279.763 369.750 C 276.564 364.888, 265.110 363.890, 260.894 368.106 C 259.036 369.964, 259 369.964, 259 368.107 C 259 367.066, 258.288 365.941, 257.418 365.607 C 255.460 364.855, 255.978 364.763, 252.767 366.438 M 266.500 371 C 266.131 371.596, 267.343 372, 269.500 372 C 271.657 372, 272.869 371.596, 272.500 371 C 272.160 370.450, 270.810 370, 269.500 370 C 268.190 370, 266.840 370.450, 266.500 371 M 153.200 372.200 C 150.567 374.833, 152.590 379, 156.500 379 C 160.614 379, 162.255 375.398, 159.429 372.571 C 157.557 370.700, 154.861 370.539, 153.200 372.200 M 226.088 372.394 C 225.405 373.217, 224.994 374.927, 225.173 376.195 C 225.441 378.084, 226.112 378.500, 228.891 378.500 C 232.952 378.500, 235.108 375.987, 233.394 373.250 C 231.973 370.981, 227.678 370.478, 226.088 372.394 M 263.163 395.878 C 262.427 396.345, 261.977 397.800, 262.163 399.113 C 262.429 401.001, 263.105 401.500, 265.391 401.500 C 268.990 401.500, 270.962 398.864, 269.070 396.584 C 267.628 394.846, 265.240 394.561, 263.163 395.878 M 104.667 397.667 C 104.300 398.033, 104 403.433, 104 409.667 L 104 421 108 421 C 111.905 421, 112 420.917, 112 417.500 L 112 414 116.777 414 C 124.743 414, 129.036 409.270, 126.826 402.930 C 126.096 400.836, 124.616 399.319, 122.397 398.392 C 119.018 396.981, 105.890 396.443, 104.667 397.667 M 187 399.418 C 187 404.324, 186.229 404.994, 182.416 403.401 C 180.520 402.608, 177.860 402.248, 176.476 402.595 C 171.081 403.949, 168.385 411.360, 171.110 417.343 C 173.114 421.741, 179.643 423.339, 183.777 420.443 C 185.023 419.571, 186 419.351, 186 419.943 C 186 420.524, 187.748 421, 189.885 421 L 193.770 421 193.300 414.750 C 193.041 411.313, 193.250 405.913, 193.763 402.750 L 194.697 397 190.849 397 C 187.445 397, 187 397.279, 187 399.418 M 246.982 400.533 C 246.211 401.975, 244.774 403.586, 243.790 404.113 C 241.618 405.275, 241.415 408, 243.500 408 C 244.504 408, 245 409.004, 245 411.032 C 245 412.700, 245.641 415.598, 246.424 417.473 C 247.555 420.179, 248.584 421.019, 251.418 421.551 C 256.853 422.570, 260 421.445, 260 418.481 C 260 416.312, 259.559 416, 256.500 416 C 253.083 416, 253 415.905, 253 412 C 253 408.095, 253.083 408, 256.500 408 C 259.567 408, 260 407.690, 260 405.500 C 260 403.319, 259.562 403, 256.570 403 C 253.773 403, 253.080 402.584, 252.820 400.750 C 252.346 397.416, 248.723 397.281, 246.982 400.533 M 139.500 403.182 C 138.400 403.813, 137.169 404.818, 136.765 405.415 C 136.318 406.076, 136.025 405.816, 136.015 404.750 C 136.003 403.398, 135.148 402.999, 132.250 402.998 L 128.500 402.995 128.821 411.998 L 129.142 421 133.021 421 L 136.900 421 137.200 415.250 L 137.500 409.500 141.309 409.186 C 144.932 408.888, 145.102 408.717, 144.809 405.694 C 144.470 402.204, 142.680 401.357, 139.500 403.182 M 152.313 403.071 C 143.530 405.698, 142.568 416.669, 150.778 420.565 C 157.423 423.718, 166.539 420.555, 168.149 414.536 C 169.056 411.144, 167.011 405.611, 164.316 404.169 C 161.306 402.558, 155.733 402.049, 152.313 403.071 M 226.419 403.075 C 216.491 405.958, 217.482 419.687, 227.756 421.614 C 234.184 422.820, 242 418.794, 242 414.277 C 242 412.405, 235.088 412.607, 234.362 414.500 C 233.496 416.756, 228.286 416.402, 227 414 C 224.653 409.615, 230.810 405.657, 234 409.500 C 235.269 411.029, 242 411.637, 242 410.223 C 242 408.336, 238.459 404.672, 235.401 403.394 C 231.662 401.832, 230.805 401.802, 226.419 403.075 M 278.313 403.071 C 274.328 404.263, 271 408.381, 271 412.119 C 271 413.829, 272.123 416.226, 273.809 418.113 C 276.062 420.634, 277.598 421.348, 281.559 421.718 C 290.598 422.560, 296.640 415.861, 293.537 408.435 C 292.785 406.634, 291.335 404.715, 290.316 404.169 C 287.306 402.558, 281.733 402.049, 278.313 403.071 M 305.750 403.560 C 304.165 404.427, 303 404.627, 303 404.032 C 303 403.464, 301.364 403, 299.364 403 L 295.728 403 296.364 407.640 C 296.714 410.191, 297 414.241, 297 416.640 C 297 420.956, 297.035 421, 300.500 421 L 304 421 304 415.622 C 304 409.552, 305.898 406.819, 308.834 408.661 C 309.998 409.392, 310.590 411.409, 310.800 415.354 L 311.100 421 314.550 421 L 318 421 318 414.111 C 318 408.990, 317.551 406.700, 316.250 405.191 C 313.874 402.434, 309.149 401.700, 305.750 403.560 M 112 405.440 C 112 407.767, 112.370 408, 116.070 408 C 119.718 408, 120.106 407.767, 119.820 405.750 C 119.563 403.943, 118.762 403.439, 115.750 403.190 C 112.312 402.905, 112 403.092, 112 405.440 M 196 410.045 C 196 416.192, 196.313 417.404, 198.455 419.545 C 201.286 422.377, 205.495 422.743, 208.777 420.443 C 210.023 419.571, 211 419.351, 211 419.943 C 211 420.524, 212.631 421, 214.625 421 C 218.152 421, 218.233 420.915, 217.625 417.875 C 217.281 416.156, 217 412.106, 217 408.875 L 217 403 213.500 403 L 210 403 210 408.378 C 210 414.312, 208.422 416.586, 205.048 415.515 C 203.287 414.956, 203 414.033, 203 408.933 L 203 403 199.500 403 L 196 403 196 410.045 M 262 412 L 262 421 265.500 421 L 269 421 269 412 L 269 403 265.500 403 L 262 403 262 412 M 152.832 410.470 C 151.280 413.875, 153.283 416.204, 157.415 415.801 C 159.988 415.550, 160.555 415.020, 160.830 412.609 C 161.395 407.663, 154.901 405.927, 152.832 410.470 M 178.200 409.200 C 176.514 410.886, 176.705 414.950, 178.502 415.639 C 180.782 416.514, 184.700 415.224, 185.414 413.364 C 186.168 411.399, 183.399 408, 181.045 408 C 180.140 408, 178.860 408.540, 178.200 409.200 M 278.832 410.470 C 277.280 413.875, 279.283 416.204, 283.415 415.801 C 285.988 415.550, 286.555 415.020, 286.830 412.609 C 287.395 407.663, 280.901 405.927, 278.832 410.470" stroke="none" fill="#fcfcfc" fill-rule="evenodd"/><path d="M 105.989 1 C 105.948 1.825, 104.444 21.817, 102.647 45.428 L 99.379 88.355 94.560 92.596 C 91.909 94.928, 77.005 107.561, 61.439 120.668 C 45.873 133.776, 33.106 144.804, 33.068 145.177 C 33.031 145.549, 45.150 165.219, 60 188.890 C 74.850 212.560, 87 232.406, 87 232.993 C 87 234.751, 70.898 258.229, 70.171 257.530 C 69.802 257.174, 63.875 248.058, 57 237.272 C 50.125 226.485, 44.050 217.513, 43.500 217.334 C 42.165 216.898, 0.449 243.569, 0.683 244.708 C 0.881 245.671, 67.700 350.959, 68.984 352.330 C 69.636 353.028, 147.083 238.553, 148.556 234.714 C 148.829 234.004, 140.490 219.799, 130.026 203.145 C 119.562 186.492, 111 172.487, 111 172.023 C 111 171.015, 137.751 136.598, 138.784 136.278 C 140.704 135.682, 146.440 147.272, 152.256 163.500 L 158.707 181.500 157.746 190.809 C 157.217 195.929, 156.963 200.297, 157.182 200.515 C 157.817 201.150, 207.303 206.030, 207.824 205.510 C 208.082 205.251, 208.968 198.270, 209.791 189.997 L 211.289 174.955 201.498 147.727 L 191.707 120.500 150.421 62 C 102.681 -5.645, 106.087 -0.968, 105.989 1 M 255.854 95.578 L 221.207 143.500 223.371 145.500 C 224.562 146.600, 226.708 148.400, 228.141 149.500 L 230.745 151.500 226.922 195.500 C 223.160 238.783, 223.097 240.294, 223.049 288.250 L 223 337 249 337 L 275 337 275 290 C 275 264.150, 275.113 242.997, 275.250 242.994 C 275.387 242.990, 286.975 239.655, 301 235.582 C 315.025 231.509, 326.573 228.250, 326.662 228.339 C 326.933 228.609, 330.004 320.989, 330.002 328.819 L 330 336.138 355.250 335.449 C 369.137 335.070, 380.884 334.407, 381.354 333.976 C 381.825 333.544, 381.644 319.590, 380.951 302.846 C 380.260 286.156, 379.426 232.675, 379.097 184 L 378.500 95.500 353 95.500 L 327.500 95.500 327 134.949 L 326.500 174.397 303.500 181.030 L 280.500 187.663 280.211 185.081 C 280.052 183.662, 282.432 152.832, 285.500 116.572 C 288.568 80.311, 290.948 49.971, 290.789 49.150 C 290.630 48.329, 274.909 69.221, 255.854 95.578" stroke="none" fill="#f4ecec" fill-rule="evenodd"/></svg>